<?xml version="1.0" standalone="no"?>
<!DOCTYPE svg PUBLIC "-//W3C//DTD SVG 20010904//EN"
 "http://www.w3.org/TR/2001/REC-SVG-20010904/DTD/svg10.dtd">
<svg version="1.0" xmlns="http://www.w3.org/2000/svg"
 width="660.000000pt" height="660.000000pt" viewBox="0 0 660.000000 660.000000"
 preserveAspectRatio="xMidYMid meet">
<metadata>
Created by potrace 1.14, written by Peter Selinger 2001-2017
</metadata>
<g transform="translate(0.000000,660.000000) scale(0.100000,-0.100000)"
fill="#000000" stroke="none">
<path d="M3495 6589 c-7 -10 -1 -108 10 -169 4 -28 14 -123 21 -215 6 -76 6
-401 0 -480 -5 -64 -16 -168 -21 -194 -3 -20 -16 -94 -20 -124 -3 -18 -27
-124 -40 -177 -2 -8 -11 -35 -19 -59 -9 -24 -18 -53 -20 -65 -6 -32 -83 -211
-118 -275 -17 -31 -39 -72 -49 -92 -34 -67 -171 -242 -258 -329 -87 -88 -222
-200 -240 -200 -5 0 -11 -3 -13 -8 -10 -23 -231 -145 -348 -192 -30 -12 -64
-26 -75 -31 -11 -5 -46 -18 -78 -28 l-59 -19 -42 67 c-24 36 -50 80 -59 96
-20 39 -62 129 -62 135 0 3 -3 10 -6 15 -8 12 -52 150 -73 225 -15 54 -20 77
-31 135 -3 17 -8 41 -11 53 -2 13 -7 43 -10 65 -3 23 -7 53 -10 67 -3 14 -8
61 -10 105 -6 123 -32 131 -159 47 -160 -105 -285 -208 -423 -349 -85 -87
-216 -239 -252 -293 -15 -23 -62 -86 -79 -106 -5 -6 -16 -24 -25 -40 -9 -16
-25 -42 -36 -59 -33 -52 -104 -180 -103 -185 1 -3 -6 -13 -14 -22 -9 -10 -12
-18 -7 -18 5 0 4 -4 -2 -8 -29 -20 -186 -428 -200 -522 -3 -19 -8 -39 -11 -44
-3 -4 -7 -20 -8 -35 -1 -14 -7 -44 -13 -66 -6 -22 -13 -60 -16 -85 -4 -25 -10
-67 -14 -95 -4 -27 -6 -144 -6 -260 1 -243 6 -311 40 -525 10 -59 26 -137 34
-165 5 -16 11 -41 14 -55 3 -14 16 -63 31 -110 14 -47 27 -92 30 -100 2 -8 16
-46 30 -85 15 -38 27 -76 28 -82 0 -7 4 -13 9 -13 4 0 8 -6 8 -13 0 -14 17
-52 82 -182 47 -94 80 -155 91 -170 4 -5 26 -39 49 -75 23 -36 45 -67 50 -68
4 -2 8 -8 8 -13 0 -21 152 -202 265 -314 118 -119 172 -166 250 -225 22 -16
45 -33 50 -38 31 -25 135 -92 144 -92 5 0 11 -3 13 -8 8 -18 320 -181 388
-203 14 -4 63 -22 110 -39 47 -17 92 -33 100 -35 33 -9 136 -37 150 -43 8 -3
26 -7 40 -9 14 -2 39 -8 55 -13 50 -15 238 -47 330 -56 28 -2 84 -8 125 -13
41 -5 185 -7 320 -6 240 3 372 15 550 50 41 8 84 16 95 18 39 8 211 57 284 81
258 88 539 234 736 381 207 155 373 312 508 480 27 33 54 67 61 76 7 9 42 58
77 110 35 52 67 96 72 97 4 2 7 8 7 13 0 5 11 26 23 47 81 128 220 437 258
572 7 25 14 50 15 55 2 6 10 35 19 65 9 30 18 66 21 80 3 14 7 32 9 40 2 8 7
31 10 50 3 19 8 42 10 50 2 8 7 38 11 65 3 28 7 52 9 55 11 18 20 219 19 410
-1 209 -5 304 -18 405 -3 22 -8 63 -11 91 -3 28 -8 61 -10 75 -5 24 -11 60
-19 109 -2 14 -7 36 -10 50 -3 14 -8 36 -10 50 -12 75 -73 293 -116 420 -28
80 -52 152 -54 161 -3 9 -14 36 -25 60 -12 23 -21 47 -21 52 0 16 -181 382
-191 385 -5 2 -9 8 -9 13 0 5 -18 39 -40 75 -22 36 -40 68 -40 70 0 3 -5 10
-10 17 -6 7 -38 55 -72 107 -34 52 -66 97 -70 98 -4 2 -8 10 -8 18 0 8 -3 14
-7 14 -5 0 -19 17 -33 38 -30 45 -35 51 -69 90 -14 16 -35 43 -46 58 -11 15
-29 38 -40 50 -11 12 -40 46 -65 76 -72 86 -377 387 -480 473 -52 44 -103 88
-114 98 -11 9 -63 50 -115 89 -53 40 -98 75 -101 78 -3 3 -12 10 -21 15 -9 6
-76 51 -150 100 -74 50 -160 106 -193 125 -32 19 -72 43 -90 54 -96 58 -341
186 -355 186 -6 0 -13 -5 -16 -11z"/>
</g>
</svg>
