<?xml version="1.0" encoding="UTF-8" standalone="no"?>
<!-- Generated by IcoMoon.io -->

<svg
   version="1.1"
   width="1024"
   height="1024"
   viewBox="0 0 1024 1024"
   id="svg7"
   sodipodi:docname="check.svg"
   inkscape:version="1.1.2 (0a00cf5339, 2022-02-04)"
   xmlns:inkscape="http://www.inkscape.org/namespaces/inkscape"
   xmlns:sodipodi="http://sodipodi.sourceforge.net/DTD/sodipodi-0.dtd"
   xmlns="http://www.w3.org/2000/svg"
   xmlns:svg="http://www.w3.org/2000/svg">
  <defs
     id="defs11" />
  <sodipodi:namedview
     id="namedview9"
     pagecolor="#ffffff"
     bordercolor="#666666"
     borderopacity="1.0"
     inkscape:pageshadow="2"
     inkscape:pageopacity="0.0"
     inkscape:pagecheckerboard="0"
     showgrid="false"
     inkscape:zoom="0.6328125"
     inkscape:cx="505.67901"
     inkscape:cy="511.20988"
     inkscape:window-width="1920"
     inkscape:window-height="1016"
     inkscape:window-x="0"
     inkscape:window-y="30"
     inkscape:window-maximized="1"
     inkscape:current-layer="svg7" />
  <title
     id="title2" />
  <rect
     style="fill:#ffffff;fill-opacity:1;stroke-width:10.117;paint-order:stroke fill markers"
     id="rect868"
     width="574.22693"
     height="476.94135"
     x="225.39806"
     y="259.9104" />
  <g
     id="icomoon-ignore" />
  <path
     fill="#000"
     d="M512 96c-229.76 0-416 186.24-416 416s186.24 416 416 416 416-186.24 416-416-186.24-416-416-416zM744.256 393.824l-303.552 303.52c-7.616 7.584-19.936 7.584-27.552 0l-6.112-6.112-0.032 0.032-167.008-168.192c-7.616-7.616-7.616-19.968 0-27.584l41.408-41.376c7.616-7.616 19.968-7.616 27.584 0l118.048 118.912 248.192-248.192c7.616-7.616 19.968-7.616 27.584 0l41.408 41.408c7.648 7.584 7.648 19.936 0.032 27.584z"
     id="path5"
     style="fill:#358df6;fill-opacity:1" />
</svg>
